<svg width="45" height="45" viewBox="0 0 45 45" fill="none" xmlns="http://www.w3.org/2000/svg">
<circle cx="22.5" cy="22.5" r="22.5" fill="#01890D"/>
<path d="M21 24.5C20.59 24.5 20.25 24.84 20.25 25.25V26.75C20.25 27.16 20.59 27.5 21 27.5C21.41 27.5 21.75 27.16 21.75 26.75V25.25C21.75 24.84 21.41 24.5 21 24.5Z" fill="white"/>
<path d="M33 30.2502H32V18.9802C32 18.3602 31.72 17.7802 31.23 17.4002L24.23 11.9602C23.51 11.3902 22.49 11.3902 21.77 11.9602L14.77 17.4002C14.28 17.7802 14 18.3602 14 18.9702L13.95 30.2502H13C12.59 30.2502 12.25 30.5802 12.25 31.0002C12.25 31.4102 12.59 31.7502 13 31.7502H33C33.41 31.7502 33.75 31.4102 33.75 31.0002C33.75 30.5802 33.41 30.2502 33 30.2502ZM21.5 15.7502H24.5C24.91 15.7502 25.25 16.0902 25.25 16.5002C25.25 16.9102 24.91 17.2502 24.5 17.2502H21.5C21.09 17.2502 20.75 16.9102 20.75 16.5002C20.75 16.0902 21.09 15.7502 21.5 15.7502ZM28 30.2502H18V21.5002C18 20.6702 18.67 20.0002 19.5 20.0002H26.5C27.33 20.0002 28 20.6702 28 21.5002V30.2502Z" fill="white"/>
</svg>
