<svg width="45" height="45" viewBox="0 0 45 45" fill="none" xmlns="http://www.w3.org/2000/svg">
<circle cx="22.5" cy="22.5" r="22.5" fill="#FF0D01"/>
<path d="M17 14.1201C16.59 14.1201 16.25 13.7801 16.25 13.3701V11.6201C16.25 11.2101 16.59 10.8701 17 10.8701C17.41 10.8701 17.75 11.2101 17.75 11.6201V13.3701C17.75 13.7901 17.41 14.1201 17 14.1201Z" fill="white"/>
<path d="M21 14.1201C20.59 14.1201 20.25 13.7801 20.25 13.3701V11.6201C20.25 11.2101 20.59 10.8701 21 10.8701C21.41 10.8701 21.75 11.2101 21.75 11.6201V13.3701C21.75 13.7901 21.41 14.1201 21 14.1201Z" fill="white"/>
<path d="M25 14.1201C24.59 14.1201 24.25 13.7801 24.25 13.3701V11.6201C24.25 11.2101 24.59 10.8701 25 10.8701C25.41 10.8701 25.75 11.2101 25.75 11.6201V13.3701C25.75 13.7901 25.41 14.1201 25 14.1201Z" fill="white"/>
<path d="M33.25 22.2498C33.25 19.6298 31.22 17.5098 28.66 17.2898C27.92 16.0798 26.6 15.2598 25.08 15.2598H17.71C15.39 15.2598 13.5 17.1498 13.5 19.4698V19.9998H29.29V19.4698C29.29 19.2798 29.26 19.0898 29.23 18.9098C30.68 19.3398 31.75 20.6598 31.75 22.2498C31.75 23.8198 30.71 25.1298 29.29 25.5698V20.9998H13.5V26.7898C13.5 29.1098 15.39 30.9998 17.71 30.9998H25.08C27.28 30.9998 29.07 29.2998 29.25 27.1398C31.53 26.6798 33.25 24.6598 33.25 22.2498Z" fill="white"/>
</svg>
