<svg width="45" height="45" viewBox="0 0 45 45" fill="none" xmlns="http://www.w3.org/2000/svg">
<circle cx="22.5" cy="22.5" r="22.5" fill="#2197F0"/>
<path d="M27.65 14.8599H20.91V17.8799C20.91 18.2699 20.59 18.5799 20.21 18.5799C19.83 18.5799 19.51 18.2699 19.51 17.8799V14.8599H18.35C14.4 14.8599 13.1 16.0399 13.01 19.7299C13 19.9099 13.08 20.0999 13.21 20.2299C13.34 20.3699 13.51 20.4399 13.71 20.4399C15.11 20.4399 16.26 21.5999 16.26 22.9999C16.26 24.3999 15.11 25.5599 13.71 25.5599C13.52 25.5599 13.34 25.6299 13.21 25.7699C13.08 25.8999 13 26.0899 13.01 26.2699C13.1 29.9599 14.4 31.1399 18.35 31.1399H19.51V28.1199C19.51 27.7299 19.83 27.4199 20.21 27.4199C20.59 27.4199 20.91 27.7299 20.91 28.1199V31.1399H27.65C31.75 31.1399 33 29.8899 33 25.7899V20.2099C33 16.1099 31.75 14.8599 27.65 14.8599ZM29.47 22.8999L28.54 23.7999C28.5 23.8299 28.49 23.8899 28.5 23.9399L28.72 25.2099C28.76 25.4399 28.67 25.6799 28.47 25.8199C28.28 25.9599 28.03 25.9799 27.82 25.8699L26.67 25.2699C26.63 25.2499 26.57 25.2499 26.53 25.2699L25.38 25.8699C25.29 25.9199 25.19 25.9399 25.09 25.9399C24.96 25.9399 24.84 25.8999 24.73 25.8199C24.54 25.6799 24.44 25.4499 24.48 25.2099L24.7 23.9399C24.71 23.8899 24.69 23.8399 24.66 23.7999L23.73 22.8999C23.56 22.7399 23.5 22.4899 23.57 22.2699C23.64 22.0399 23.83 21.8799 24.07 21.8499L25.35 21.6599C25.4 21.6499 25.44 21.6199 25.47 21.5799L26.04 20.4199C26.15 20.2099 26.36 20.0799 26.6 20.0799C26.84 20.0799 27.05 20.2099 27.15 20.4199L27.72 21.5799C27.74 21.6299 27.78 21.6599 27.83 21.6599L29.11 21.8499C29.35 21.8799 29.54 22.0499 29.61 22.2699C29.7 22.4899 29.64 22.7299 29.47 22.8999Z" fill="white"/>
</svg>
