<svg width="45" height="45" viewBox="0 0 45 45" fill="none" xmlns="http://www.w3.org/2000/svg">
<circle cx="22.5" cy="22.5" r="22.5" fill="#097EA3"/>
<path d="M29.71 20.49C29.61 20.49 29.51 20.47 29.41 20.43C29.03 20.26 28.86 19.82 29.02 19.44C29.21 19.01 29.1 18.38 28.75 17.86C28.4 17.33 27.87 16.97 27.39 17C26.95 17 26.64 16.67 26.63 16.26C26.63 15.84 26.96 15.51 27.37 15.5C28.4 15.48 29.37 16.07 30 17.02C30.64 17.98 30.79 19.13 30.4 20.03C30.28 20.32 30 20.49 29.71 20.49Z" fill="white"/>
<path d="M32.82 21.4799C32.75 21.4799 32.69 21.4699 32.62 21.4499C32.22 21.3399 31.99 20.9299 32.1 20.5299C32.48 19.1699 32.16 17.5499 31.25 16.1899C30.34 14.8299 28.96 13.9199 27.55 13.7499C27.14 13.6999 26.85 13.3299 26.9 12.9199C26.95 12.5099 27.33 12.2099 27.73 12.2699C29.56 12.4899 31.34 13.6499 32.49 15.3699C33.64 17.0899 34.03 19.1699 33.54 20.9499C33.45 21.2599 33.15 21.4799 32.82 21.4799Z" fill="white"/>
<path d="M28.12 22.78C28.12 23.08 27.87 23.33 27.57 23.33H14.43C14.13 23.33 13.88 23.08 13.88 22.78C13.88 22.48 14.13 22.23 14.43 22.23H15.17L15.45 20.91C15.71 19.63 16.26 18.46 18.44 18.46H23.57C25.75 18.46 26.29 19.64 26.56 20.91L26.84 22.23H27.58C27.87 22.23 28.12 22.48 28.12 22.78Z" fill="white"/>
<path d="M28.43 26.9099C28.32 25.7099 28 24.4199 25.66 24.4199H16.34C14 24.4199 13.68 25.7099 13.57 26.9099L13.16 31.3599C13.11 31.9099 13.29 32.4699 13.67 32.8899C14.06 33.3099 14.6 33.5499 15.19 33.5499H16.56C17.74 33.5499 17.97 32.8699 18.12 32.4299L18.27 31.9899C18.44 31.4899 18.48 31.3599 19.14 31.3599H22.88C23.54 31.3599 23.56 31.4299 23.75 31.9899L23.9 32.4299C24.05 32.8799 24.27 33.5499 25.46 33.5499H26.83C27.41 33.5499 27.96 33.3099 28.35 32.8899C28.73 32.4699 28.91 31.9199 28.86 31.3599L28.43 26.9099ZM18.81 28.4299H16.62C16.32 28.4299 16.07 28.1799 16.07 27.8799C16.07 27.5799 16.32 27.3299 16.62 27.3299H18.81C19.11 27.3299 19.36 27.5799 19.36 27.8799C19.36 28.1799 19.11 28.4299 18.81 28.4299ZM25.38 28.4299H23.19C22.89 28.4299 22.64 28.1799 22.64 27.8799C22.64 27.5799 22.89 27.3299 23.19 27.3299H25.38C25.68 27.3299 25.93 27.5799 25.93 27.8799C25.93 28.1799 25.68 28.4299 25.38 28.4299Z" fill="white"/>
</svg>
