<svg width="45" height="45" viewBox="0 0 45 45" fill="none" xmlns="http://www.w3.org/2000/svg">
<circle cx="22.5" cy="22.5" r="22.5" fill="#FF0D01"/>
<path d="M16 17C14.34 17 13 18.34 13 20V28C13 29.66 14.34 31 16 31H17.5C18.6 31 19.5 30.1 19.5 29V19C19.5 17.9 18.6 17 17.5 17H16ZM17 26C17 26.41 16.66 26.75 16.25 26.75C15.84 26.75 15.5 26.41 15.5 26V22C15.5 21.59 15.84 21.25 16.25 21.25C16.66 21.25 17 21.59 17 22V26Z" fill="white"/>
<path d="M30 11H24C22.34 11 21 12.34 21 14V28C21 29.66 22.34 31 24 31H24.5C24.78 31 25 30.78 25 30.5V27C25 26.45 25.45 26 26 26H28C28.55 26 29 26.45 29 27V30.5C29 30.78 29.22 31 29.5 31H30C31.66 31 33 29.66 33 28V14C33 12.34 31.66 11 30 11ZM25.75 22C25.75 22.41 25.41 22.75 25 22.75C24.59 22.75 24.25 22.41 24.25 22V17C24.25 16.59 24.59 16.25 25 16.25C25.41 16.25 25.75 16.59 25.75 17V22ZM29.75 22C29.75 22.41 29.41 22.75 29 22.75C28.59 22.75 28.25 22.41 28.25 22V17C28.25 16.59 28.59 16.25 29 16.25C29.41 16.25 29.75 16.59 29.75 17V22Z" fill="white"/>
</svg>
